# xmcd
#
# Track frame offsets:
#	150
#	14221
#	27299
#	40823
#	53596
#	65405
#	77837
#	88144
#	99359
#	112699
#	125024
#	135187
#	147208
#	167621
#	177057
#	188280
#	199399
#	211853
#	221050
#	234250
#	243553
#	257022
#	267498
#	276505
#	289728
#
# Disc length: 4037 seconds
#
# Revision: 0
# Processed by: cddbd v1.5.2PL0 Copyright (c) Steve Scherf et al.
# Submitted via: audiograbber 1.83.01
#
DISCID=660fc319
DTITLE=Slim Whitman - The best of CD2
DYEAR=1900
DGENRE=
TTITLE0=Indian Love Call
TTITLE1=Love Song Of The Waterfall
TTITLE2=Tumbling Tumbletweeds
TTITLE3=China Doll
TTITLE4=I Love You BEcause
TTITLE5=By The Waters Of THe Minnetonka
TTITLE6=Curtain Of Tears
TTITLE7=I'm Casting My Lasso Towards The Sky
TTITLE8=Lovesick Blues
TTITLE9=The Bells That Broke My Heart
TTITLE10=It Sure Looks Lonesome Outside
TTITLE11=Dear Mary
TTITLE12=Eileen
TTITLE13=Ramona
TTITLE14=How Can I Tell
TTITLE15=For All We Know
TTITLE16=Ten Thousand Teardrops
TTITLE17=In A Hundred Years
TTITLE18=Molly Darling
TTITLE19=The Old Spinning Wheel
TTITLE20=Roll On Silvery Moon
TTITLE21=Serenade
TTITLE22=Hush-A-Bye
TTITLE23=That Silver Haired Daddy Of Mine
TTITLE24=Vaya Con Dios
EXTD=
EXTT0=
EXTT1=
EXTT2=
EXTT3=
EXTT4=
EXTT5=
EXTT6=
EXTT7=
EXTT8=
EXTT9=
EXTT10=
EXTT11=
EXTT12=
EXTT13=
EXTT14=
EXTT15=
EXTT16=
EXTT17=
EXTT18=
EXTT19=
EXTT20=
EXTT21=
EXTT22=
EXTT23=
EXTT24=
PLAYORDER=
